<svg width="28" height="28" viewBox="0 0 28 28" fill="none" xmlns="http://www.w3.org/2000/svg">
<path d="M21.4996 8.99405L22.0824 10.005V10.0118C22.5689 10.8651 22.276 11.9509 21.4266 12.4452C21.1542 12.6009 20.9275 12.8276 20.7718 13.101C20.7689 13.1058 20.765 13.1117 20.7621 13.1175C20.2756 13.9708 20.5733 15.0566 21.4266 15.5431C21.4324 15.5461 21.4383 15.549 21.4431 15.5529C22.2916 16.0481 22.5776 17.1369 22.0824 17.9853L21.4655 19.0147C20.9712 19.869 19.8786 20.1628 19.0233 19.6705C18.7616 19.5216 18.4678 19.4389 18.1662 19.4311H18.1418C17.1601 19.4379 16.3691 20.2397 16.3759 21.2214C16.3691 22.2061 15.5693 23 14.5846 23H13.4151C12.4256 23 11.6239 22.1983 11.6239 21.2097C11.621 20.9081 11.5383 20.6123 11.3845 20.3525C11.3816 20.3477 11.3787 20.3428 11.3758 20.3389C10.8835 19.4915 9.79665 19.2044 8.95016 19.6977C8.94627 19.6997 8.94238 19.7026 8.93848 19.7045C8.07156 20.1823 6.98281 19.867 6.50508 19.0011L5.91351 17.9814C5.91254 17.9795 5.91059 17.9775 5.90962 17.9756C5.42119 17.1232 5.716 16.0364 6.56832 15.548C7.12292 15.2279 7.46443 14.6363 7.46443 13.9971C7.46443 13.3569 7.12292 12.7653 6.56832 12.4452C5.71502 11.9509 5.42119 10.8583 5.91351 10.003L6.53913 8.97362C7.0334 8.11935 8.12508 7.82649 8.98129 8.31784C9.24108 8.47157 9.53589 8.55427 9.83751 8.55719C10.8183 8.56011 11.619 7.772 11.6326 6.79124V6.77859C11.6326 5.79686 12.4285 5 13.4112 5H14.5846C14.6041 5 14.6236 5.00097 14.643 5.00097C15.6316 5.03308 16.407 5.86011 16.3759 6.84865C16.3788 7.15027 16.4615 7.44508 16.6152 7.70486C16.6172 7.70778 16.6191 7.71168 16.6211 7.71459C17.1212 8.56011 18.2129 8.83935 19.0574 8.33827C19.9136 7.84692 21.0053 8.13978 21.4996 8.99405Z" stroke="black" stroke-width="1.5" stroke-linecap="round" stroke-linejoin="round"/>
<path d="M16.4701 13.9987C16.4701 12.6356 15.3658 11.5312 14.0026 11.5312C12.6395 11.5312 11.5352 12.6356 11.5352 13.9987C11.5352 15.3618 12.6395 16.4662 14.0026 16.4662C15.3658 16.4662 16.4701 15.3618 16.4701 13.9987Z" stroke="black" stroke-width="1.5" stroke-linecap="round" stroke-linejoin="round"/>
</svg>
