<svg width="28" height="28" viewBox="0 0 28 28" fill="none" xmlns="http://www.w3.org/2000/svg">
<path d="M7.25 5.00049V7.00049" stroke="black" stroke-width="1.5" stroke-linecap="round" stroke-linejoin="round"/>
<path fill-rule="evenodd" clip-rule="evenodd" d="M8.0152 7.00049H6.48376C5.66453 7.00049 5 7.66249 5 8.47958V11.5224C5 12.3395 5.66453 13.0005 6.48376 13.0005H8.0152C8.83541 13.0005 9.49994 12.3395 9.49994 11.5224V8.47958C9.49994 7.66249 8.83541 7.00049 8.0152 7.00049Z" stroke="black" stroke-width="1.5" stroke-linecap="round" stroke-linejoin="round"/>
<path d="M7.25 13.0005V15.0005" stroke="black" stroke-width="1.5" stroke-linecap="round" stroke-linejoin="round"/>
<path d="M14 8.00049V10.5005" stroke="black" stroke-width="1.5" stroke-linecap="round" stroke-linejoin="round"/>
<path fill-rule="evenodd" clip-rule="evenodd" d="M14.7652 10.5005H13.2338C12.4145 10.5005 11.75 11.1625 11.75 11.9796V19.0224C11.75 19.8395 12.4145 20.5005 13.2338 20.5005H14.7652C15.5854 20.5005 16.2499 19.8395 16.2499 19.0224V11.9796C16.2499 11.1625 15.5854 10.5005 14.7652 10.5005Z" stroke="black" stroke-width="1.5" stroke-linecap="round" stroke-linejoin="round"/>
<path d="M14 20.5005V23.0005" stroke="black" stroke-width="1.5" stroke-linecap="round" stroke-linejoin="round"/>
<path d="M20.75 7.00049V9.50049" stroke="black" stroke-width="1.5" stroke-linecap="round" stroke-linejoin="round"/>
<path fill-rule="evenodd" clip-rule="evenodd" d="M21.5152 9.50049H19.9838C19.1645 9.50049 18.5 10.1625 18.5 10.9796V11.0224C18.5 11.8394 19.1645 12.5005 19.9838 12.5005H21.5152C22.3354 12.5005 22.9999 11.8394 22.9999 11.0224V10.9796C22.9999 10.1625 22.3354 9.50049 21.5152 9.50049Z" stroke="black" stroke-width="1.5" stroke-linecap="round" stroke-linejoin="round"/>
<path d="M20.75 12.5005V15.0005" stroke="black" stroke-width="1.5" stroke-linecap="round" stroke-linejoin="round"/>
</svg>
